<svg width="40" height="35" viewBox="0 0 40 35" fill="none" xmlns="http://www.w3.org/2000/svg">
<path id="Vector" fill-rule="evenodd" clip-rule="evenodd" d="M5.09295 1.5008C7.58914 -0.788343 11.6996 -0.381594 13.7896 2.19512L16.3781 5.381C18.0805 7.47718 17.9288 10.4058 15.9084 12.2579L15.4203 12.7082C15.3649 12.8972 15.3593 13.0956 15.4039 13.2871C15.5331 14.0589 16.2325 15.6935 19.1615 18.3799C22.0905 21.0664 23.8749 21.7096 24.7241 21.8307C24.938 21.8704 25.159 21.8646 25.3702 21.8137L26.207 21.0456C28.0038 19.3997 30.7605 19.0913 32.9839 20.2056L36.9015 22.1731C40.2591 23.8531 41.1063 28.0606 38.3578 30.5824L35.4431 33.2537C34.5243 34.0956 33.2895 34.7975 31.784 34.928C28.0715 35.2477 19.422 34.8391 10.3294 26.5017C1.844 18.7186 0.215421 11.9306 0.00825981 8.58581C-0.0942954 6.89449 0.771271 5.46424 1.87477 4.45399L5.09295 1.5008ZM11.3283 3.89589C10.2884 2.61511 8.35215 2.51295 7.26097 3.51374L4.04073 6.46504C3.36387 7.08556 3.03979 7.77042 3.08082 8.425C3.2449 11.0831 4.55761 17.207 12.4995 24.4906C20.8311 32.13 28.5248 32.3589 31.4989 32.1016C32.106 32.0505 32.709 31.7592 33.2731 31.2427L36.1856 28.5695C37.3712 27.4836 37.1107 25.5047 35.4329 24.6647L31.5153 22.6991C30.4323 22.158 29.1647 22.3358 28.3771 23.0585L27.4438 23.9155L26.3568 22.9091C27.4438 23.9155 27.4418 23.9174 27.4397 23.9174L27.4377 23.9212L27.4315 23.9269L27.4172 23.9382L27.3864 23.9647C27.2999 24.0388 27.2065 24.1059 27.1075 24.1652C26.9434 24.2655 26.726 24.3771 26.4532 24.4698C25.8994 24.6609 25.1651 24.7631 24.2585 24.6344C22.4802 24.3828 20.1234 23.2647 16.9914 20.3929C13.8614 17.521 12.639 15.3605 12.3641 13.7222C12.2226 12.886 12.3354 12.2087 12.5446 11.6979C12.6598 11.4105 12.8246 11.1421 13.0328 10.9033L13.0984 10.8371L13.1271 10.8087L13.1394 10.7974L13.1456 10.7917L13.1497 10.7879L13.7404 10.2469C14.6183 9.43903 14.7413 8.10149 13.9148 7.08178L11.3283 3.89589Z" fill="#191919"/>
</svg>
