<svg width="34" height="33" viewBox="0 0 34 33" fill="none" xmlns="http://www.w3.org/2000/svg">
<g id="Group 19">
<path id="Ellipse 7" d="M32.1899 16.1852C32.1899 24.5483 25.2315 31.3704 16.5949 31.3704C7.95837 31.3704 1 24.5483 1 16.1852C1 7.82206 7.95837 1 16.5949 1C25.2315 1 32.1899 7.82206 32.1899 16.1852Z" fill="#01BBBD" stroke="white" stroke-width="2"/>
<path id="Vector" d="M16.5443 19.4632C17.9587 19.4632 19.1053 18.3166 19.1053 16.9023C19.1053 15.4879 17.9587 14.3413 16.5443 14.3413C15.13 14.3413 13.9834 15.4879 13.9834 16.9023C13.9834 18.3166 15.13 19.4632 16.5443 19.4632Z" fill="#FEFEFE"/>
<path id="Vector_2" d="M24.5473 11.7804H21.2261C21.1061 11.7804 20.9572 11.7028 20.8412 11.5804L19.7496 9.86772C19.3054 9.21948 19.1053 9.21948 18.385 9.21948H14.7037C13.9834 9.21948 13.7433 9.21948 13.3404 9.86812L12.2476 11.5804C12.1587 11.6772 12.0339 11.7804 11.9027 11.7804V11.1402C11.9027 11.0553 11.8689 10.9739 11.8089 10.9138C11.7489 10.8538 11.6674 10.8201 11.5825 10.8201H9.98194C9.89704 10.8201 9.81562 10.8538 9.75558 10.9138C9.69555 10.9739 9.66182 11.0553 9.66182 11.1402V11.7804H8.54141C8.28671 11.7804 8.04244 11.8816 7.86234 12.0617C7.68223 12.2418 7.58105 12.4861 7.58105 12.7408V22.3443C7.58105 22.599 7.68223 22.8433 7.86234 23.0234C8.04244 23.2035 8.28671 23.3047 8.54141 23.3047H24.5473C24.802 23.3047 25.0463 23.2035 25.2264 23.0234C25.4065 22.8433 25.5077 22.599 25.5077 22.3443V12.7408C25.5077 12.4861 25.4065 12.2418 25.2264 12.0617C25.0463 11.8816 24.802 11.7804 24.5473 11.7804ZM16.7248 20.7397C15.9506 20.7761 15.1834 20.5774 14.5242 20.1697C13.8649 19.762 13.3444 19.1644 13.0311 18.4555C12.7177 17.7465 12.6262 16.9593 12.7685 16.1974C12.9107 15.4354 13.2802 14.7344 13.8283 14.1863C14.3764 13.6382 15.0775 13.2687 15.8394 13.1264C16.6014 12.9841 17.3886 13.0757 18.0975 13.389C18.8065 13.7024 19.4041 14.2229 19.8118 14.8821C20.2194 15.5414 20.4182 16.3085 20.3818 17.0828C20.3359 18.0379 19.9359 18.9416 19.2598 19.6178C18.5837 20.2939 17.6799 20.6939 16.7248 20.7397Z" fill="#FEFEFE"/>
</g>
</svg>
