<svg width="40" height="35" viewBox="0 0 40 35" fill="none" xmlns="http://www.w3.org/2000/svg">
<path id="Vector" d="M30.68 6.055C30.2053 6.055 29.7413 6.17816 29.3466 6.40891C28.952 6.63967 28.6443 6.96764 28.4627 7.35136C28.281 7.73509 28.2335 8.15733 28.3261 8.56469C28.4187 8.97205 28.6473 9.34623 28.9829 9.63992C29.3186 9.93361 29.7462 10.1336 30.2118 10.2146C30.6773 10.2957 31.1599 10.2541 31.5984 10.0951C32.037 9.9362 32.4118 9.66704 32.6755 9.3217C32.9392 8.97635 33.08 8.57034 33.08 8.155C33.08 7.59804 32.8271 7.0639 32.3771 6.67008C31.927 6.27625 31.3165 6.055 30.68 6.055ZM39.88 10.29C39.8407 8.83805 39.53 7.40154 38.96 6.0375C38.4538 4.86946 37.662 3.81231 36.64 2.94C35.6496 2.043 34.4391 1.35481 33.1 0.9275C31.5453 0.413281 29.9017 0.135117 28.24 0.105C26.12 -9.75964e-08 25.44 0 20 0C14.56 0 13.88 -9.75964e-08 11.76 0.105C10.0983 0.135117 8.45469 0.413281 6.9 0.9275C5.56396 1.36019 4.35473 2.04765 3.36 2.94C2.33485 3.80656 1.54835 4.86577 1.06 6.0375C0.472322 7.39785 0.15442 8.83602 0.12 10.29C-1.11759e-07 12.145 0 12.74 0 17.5C0 22.26 -1.11759e-07 22.855 0.12 24.71C0.15442 26.164 0.472322 27.6021 1.06 28.9625C1.54835 30.1342 2.33485 31.1934 3.36 32.06C4.35473 32.9524 5.56396 33.6398 6.9 34.0725C8.45469 34.5867 10.0983 34.8649 11.76 34.895C13.88 35 14.56 35 20 35C25.44 35 26.12 35 28.24 34.895C29.9017 34.8649 31.5453 34.5867 33.1 34.0725C34.4391 33.6452 35.6496 32.957 36.64 32.06C37.6645 31.1895 38.4567 30.1318 38.96 28.9625C39.53 27.5985 39.8407 26.1619 39.88 24.71C39.88 22.855 40 22.26 40 17.5C40 12.74 40 12.145 39.88 10.29ZM36.28 24.5C36.2658 25.6109 36.0359 26.7116 35.6 27.755C35.2807 28.5166 34.7678 29.2047 34.1 29.7675C33.4509 30.3455 32.6662 30.7933 31.8 31.08C30.6075 31.4614 29.3496 31.6626 28.08 31.675C26.08 31.7625 25.34 31.78 20.08 31.78C14.82 31.78 14.08 31.78 12.08 31.675C10.7617 31.6977 9.4489 31.52 8.2 31.15C7.37237 30.8478 6.62381 30.4012 6 29.8375C5.33618 29.2753 4.82969 28.5866 4.52 27.825C4.03009 26.7669 3.7592 25.6411 3.72 24.5C3.72 22.75 3.6 22.1025 3.6 17.5C3.6 12.8975 3.6 12.25 3.72 10.5C3.72729 9.36421 3.96428 8.23851 4.42 7.175C4.77209 6.43634 5.31253 5.7779 6 5.25C6.60585 4.64658 7.35726 4.16841 8.2 3.85C9.4188 3.46409 10.7039 3.26287 12 3.255C14 3.255 14.74 3.15 20 3.15C25.26 3.15 26 3.15 28 3.255C29.2696 3.2674 30.5275 3.4686 31.72 3.85C32.6289 4.14514 33.4446 4.62498 34.1 5.25C34.7534 5.78904 35.2652 6.44585 35.6 7.175C36.0449 8.24054 36.275 9.36558 36.28 10.5C36.38 12.25 36.4 12.8975 36.4 17.5C36.4 22.1025 36.38 22.75 36.28 24.5ZM20 8.5225C17.9716 8.52596 15.9899 9.05542 14.3053 10.044C12.6207 11.0325 11.3088 12.4358 10.5353 14.0766C9.76178 15.7173 9.56145 17.5218 9.95959 19.2621C10.3577 21.0024 11.3365 22.6004 12.7722 23.8542C14.2078 25.108 16.036 25.9613 18.0257 26.3063C20.0154 26.6512 22.0773 26.4724 23.9509 25.7924C25.8245 25.1124 27.4258 23.9618 28.5523 22.4858C29.6788 21.0098 30.28 19.2748 30.28 17.5C30.2826 16.3189 30.0184 15.1491 29.5025 14.0577C28.9866 12.9663 28.2291 11.9749 27.2737 11.1406C26.3184 10.3063 25.1839 9.64544 23.9356 9.19613C22.6873 8.74681 21.3498 8.51788 20 8.5225ZM20 23.3275C18.6828 23.3275 17.3951 22.9857 16.2999 22.3454C15.2047 21.7051 14.351 20.7949 13.847 19.7301C13.3429 18.6653 13.211 17.4935 13.468 16.3631C13.7249 15.2327 14.3593 14.1943 15.2907 13.3793C16.2221 12.5643 17.4088 12.0093 18.7007 11.7845C19.9926 11.5596 21.3317 11.675 22.5487 12.1161C23.7656 12.5572 24.8058 13.3041 25.5376 14.2624C26.2694 15.2207 26.66 16.3474 26.66 17.5C26.66 18.2653 26.4877 19.0231 26.153 19.7301C25.8183 20.4371 25.3278 21.0795 24.7093 21.6207C24.0909 22.1618 23.3567 22.591 22.5487 22.8839C21.7406 23.1768 20.8746 23.3275 20 23.3275Z" fill="#191919"/>
</svg>
