<svg width="40" height="35" viewBox="0 0 40 35" fill="none" xmlns="http://www.w3.org/2000/svg">
<path id="Vector" d="M28.72 21C28.88 19.845 29 18.69 29 17.5C29 16.31 28.88 15.155 28.72 14H35.48C35.8 15.12 36 16.2925 36 17.5C36 18.7075 35.8 19.88 35.48 21M25.18 30.73C26.38 28.7875 27.3 26.6875 27.94 24.5H33.84C31.9023 27.4195 28.8282 29.631 25.18 30.73ZM24.68 21H15.32C15.12 19.845 15 18.69 15 17.5C15 16.31 15.12 15.1375 15.32 14H24.68C24.86 15.1375 25 16.31 25 17.5C25 18.69 24.86 19.845 24.68 21ZM20 31.43C18.34 29.33 17 27.0025 16.18 24.5H23.82C23 27.0025 21.66 29.33 20 31.43ZM12 10.5H6.16C8.07728 7.57231 11.1493 5.35717 14.8 4.27C13.6 6.2125 12.7 8.3125 12 10.5ZM6.16 24.5H12C12.7 26.6875 13.6 28.7875 14.8 30.73C11.1565 29.6315 8.08858 27.4193 6.16 24.5ZM4.52 21C4.2 19.88 4 18.7075 4 17.5C4 16.2925 4.2 15.12 4.52 14H11.28C11.12 15.155 11 16.31 11 17.5C11 18.69 11.12 19.845 11.28 21M20 3.5525C21.66 5.6525 23 7.9975 23.82 10.5H16.18C17 7.9975 18.34 5.6525 20 3.5525ZM33.84 10.5H27.94C27.3131 8.33282 26.3862 6.24068 25.18 4.27C28.86 5.3725 31.92 7.595 33.84 10.5ZM20 0C8.94 0 0 7.875 0 17.5C0 22.1413 2.10714 26.5925 5.85786 29.8744C7.71504 31.4994 9.91982 32.7884 12.3463 33.6679C14.7728 34.5474 17.3736 35 20 35C25.3043 35 30.3914 33.1563 34.1421 29.8744C37.8929 26.5925 40 22.1413 40 17.5C40 15.2019 39.4827 12.9262 38.4776 10.803C37.4725 8.67984 35.9993 6.75066 34.1421 5.12563C32.285 3.50061 30.0802 2.21157 27.6537 1.33211C25.2272 0.452651 22.6264 0 20 0Z" fill="#191919"/>
</svg>
